<?xml version="1.0" encoding="utf-8"?>
<!-- Generator: Adobe Illustrator 19.0.0, SVG Export Plug-In . SVG Version: 6.00 Build 0)  -->
<svg version="1.1" id="Layer_1" xmlns="http://www.w3.org/2000/svg" xmlns:xlink="http://www.w3.org/1999/xlink" x="0px" y="0px"
	 viewBox="0 0 72 27" style="enable-background:new 0 0 72 27;" xml:space="preserve">
<style type="text/css">
	.st0{fill:#2B3990;}
	.st1{font-family:'Futura-Medium';}
	.st2{font-size:14px;}
	.st3{clip-path:url(#SVGID_2_);}
	.st4{clip-path:url(#SVGID_4_);}
	.st5{clip-path:url(#SVGID_6_);fill:#F5C400;}
	.st6{fill:#FFCC00;}
	.st7{fill:#FFEE00;}
	.st8{fill:#2277BB;}
	.st9{fill:#223399;}
	.st10{fill:#222266;}
</style>
<text id="XMLID_2_" transform="matrix(1 0 0 1 6.2569 14.4002)" class="st0 st1 st2">Hail</text>
<g>
	<g id="XMLID_3_">
		<defs>
			<rect id="SVGID_1_" x="37" y="4.6" width="13.3" height="8.9"/>
		</defs>
		<clipPath id="SVGID_2_">
			<use xlink:href="#SVGID_1_"  style="overflow:visible;"/>
		</clipPath>
		<g id="XMLID_4_" class="st3">
			<g>
				<defs>
					<rect id="SVGID_3_" x="37.1" y="-75.8" width="68.9" height="89.2"/>
				</defs>
				<clipPath id="SVGID_4_">
					<use xlink:href="#SVGID_3_"  style="overflow:visible;"/>
				</clipPath>
				<g id="XMLID_6_" class="st4">
					<g id="XMLID_8_">
						<defs>
							<rect id="SVGID_5_" x="37.1" y="4.7" width="13.1" height="8.7"/>
						</defs>
						<clipPath id="SVGID_6_">
							<use xlink:href="#SVGID_5_"  style="overflow:visible;"/>
						</clipPath>
						<path id="XMLID_10_" class="st5" d="M49.5,13c0,0.2,0.2,0.4,0.4,0.4s0.4-0.1,0.4-0.4c0-0.2-0.2-0.4-0.4-0.4
							C49.7,12.6,49.5,12.8,49.5,13 M49.6,13c0-0.2,0.1-0.3,0.3-0.3s0.3,0.1,0.3,0.3c0,0.2-0.1,0.3-0.3,0.3S49.6,13.2,49.6,13z
							 M49.7,13.2L49.7,13.2l0.1-0.2h0.1l0.1,0.2h0.1L49.9,13c0.1,0,0.1,0,0.1-0.1s-0.1-0.1-0.2-0.1h-0.2v0.4H49.7z M49.8,12.9
							L49.8,12.9c0.1,0,0.2,0,0.2,0.1c0,0,0,0.1-0.1,0.1h-0.1C49.8,13.1,49.8,12.9,49.8,12.9z M43.2,11.9l-2.5-3.4V11h1v2.4h-4.6V11
							h1V7.1h-1V4.7h3.6l2.5,3.4l2.5-3.4h3.6v2.4h-0.9v3.8h0.9v2.4h-4.6v-2.4h1V8.4L43.2,11.9z"/>
					</g>
				</g>
			</g>
		</g>
	</g>
</g>
<g>
	<path class="st6" d="M62.8,10.2V6.6h-1.1l0-0.5l0-0.5l0.2,0c0.9-0.1,1.1-0.3,1.4-1l0.1-0.1h1v9.5h-1.5L62.8,10.2z"/>
	<path class="st7" d="M61.4,13.6l0-0.2l0.1-0.1c0.5-0.4,0.7-1.1,0.7-2.2c0-1.1-0.4-2-0.7-2.2l-0.1,0l0-0.2c0,0,0-0.7,0-1.2l0-0.9H61
		c-0.2,0-0.4,0-0.6,0l-0.2,0V6l0-0.5l0.1,0c0.5,0,0.9-0.2,1.2-0.5c0,0,0.1-0.1,0.1-0.1c0,0,0.2-0.3,0.3-0.5l0-0.1h1l0,0.4l0,0.4
		l-0.1,0c-0.2,0.2-0.5,0.3-0.9,0.3l-0.2,0l0,0.5l0,0.5h1.1v7.2h-1.5L61.4,13.6z"/>
	<path class="st8" d="M58.6,4.3c-0.2,0-0.3,0-0.3,0s0,0.1,0,0.2c0,0.3,0.2,1.1,0.2,1.3c0,0,0,0.2,0,0.2c0,0.1,0,0.2,0,0.3
		c0,0.1,0,0.2,0,0.3c0,0.1,0,0.2,0.1,0.3c0,0.1,0,0.3,0.1,0.4c0,0.1,0,0.3,0.1,0.3c0,0,0,0.2,0,0.2c0,0.1,0,0.2,0,0.3
		c0,0.1,0,0.2,0,0.3c0,0.1,0,0.3,0.1,0.4c0,0.1,0.1,0.3,0.1,0.5l0,0.2h0.4c0.8,0,1.1,0.1,1.2,0.8c0,0.1,0,1.2,0,1.4
		c-0.1,0.6-0.3,0.7-0.9,0.7h-0.2l0,0c0,0,0.1,0.4,0.2,1h0l0.1,0.3l0.2,0c1.3,0,2-0.7,2.1-2c0-0.2,0-1.1,0-1.3
		c-0.1-0.9-0.4-1.4-0.9-1.7C61,8.7,61,8.7,61.1,8.7c0.1,0,0.2-0.1,0.2-0.1l0,0l0-1v-1h-0.8l0,0.4c0,0.6-0.1,0.8-0.3,1
		c-0.2,0.2-0.3,0.2-0.8,0.2l-0.4,0V5.7l0.4,0c0.5,0,0.5,0,0.7,0.1l0.1,0V5.5l0.1,0c0.5,0,0.9-0.2,1.2-0.5l0.1-0.1l0,0
		c-0.3-0.3-0.7-0.5-1.3-0.6C60.1,4.3,59.1,4.3,58.6,4.3L58.6,4.3z M57.6,8.5l0,4h0.5L57.6,8.5z"/>
	<path class="st9" d="M58.3,13.8c0,0,0-0.3-0.2-1.1c0-0.1,0-0.2-0.1-0.3c0-0.1,0-0.2,0-0.2c0,0-0.4,0-0.9,0h-0.9l0,0.1
		c0,0.1,0,0.1,0,0.2c0,0.1,0-0.7,0-4l0-4.1h1c1,0,1,0,1,0s0,0.1,0,0.2c0,0.3,0.2,1.1,0.2,1.3c0,0,0,0.2,0,0.2s0,0.2,0,0.3
		s0,0.2,0,0.3c0,0.1,0,0.2,0.1,0.3c0,0.1,0,0.3,0.1,0.4c0,0.1,0,0.3,0.1,0.3c0,0,0,0.2,0,0.2s0,0.2,0,0.3c0,0.1,0,0.2,0,0.3
		c0,0.1,0,0.3,0.1,0.4c0,0.1,0.1,0.3,0.1,0.4c0,0.3,0.5,3.1,0.5,3.2c0,0,0,0.2,0.1,0.4c0,0.2,0.1,0.5,0.1,0.6c0,0.1,0,0.3,0,0.3
		s-0.2,0-0.7,0L58.3,13.8L58.3,13.8z M57.9,10.8c0,0-0.1-0.8-0.2-1.3c-0.1-0.9-0.2-1.5-0.3-2.4c-0.1-0.5-0.1-1-0.1-1
		c0-0.1,0,0,0,0.1c0,0.1-0.2,1.3-0.4,2.9c-0.1,0.4-0.1,1-0.2,1.3c0,0.3-0.1,0.5-0.1,0.5l0,0L57.9,10.8L57.9,10.8z"/>
	<path class="st10" d="M54.8,9V4.3h1.5l0,4.1l0,4.1l0.9,0l0.9,0l0,0c0,0.1,0.2,1.2,0.2,1.3l0,0h-3.5L54.8,9L54.8,9z"/>
</g>
</svg>
