<?xml version="1.0" encoding="utf-8"?>
<!-- Generator: Adobe Illustrator 19.0.0, SVG Export Plug-In . SVG Version: 6.00 Build 0)  -->
<svg version="1.1" id="Layer_1" xmlns="http://www.w3.org/2000/svg" xmlns:xlink="http://www.w3.org/1999/xlink" x="0px" y="0px"
	 viewBox="0 0 72 36" style="enable-background:new 0 0 72 36;" xml:space="preserve">
<style type="text/css">
	.st0{fill:#2B3990;}
	.st1{fill:#F1F2F2;}
	.st2{font-family:'Futura-Medium';}
	.st3{font-size:18px;}
	.st4{clip-path:url(#XMLID_27_);}
	.st5{clip-path:url(#XMLID_28_);}
	.st6{clip-path:url(#XMLID_29_);fill:#F5C400;}
	.st7{fill:#FFCD05;}
	.st8{fill:#FEEE0B;}
	.st9{fill:#F5C400;}
	.st10{fill:#FFF200;}
</style>
<rect id="XMLID_1_" class="st0" width="72" height="36"/>
<text id="XMLID_2_" transform="matrix(1 0 0 1 2.5729 17.9997)" class="st1 st2 st3">Hail</text>
<g id="XMLID_3_">
	<g id="XMLID_4_">
		<defs>
			<rect id="XMLID_5_" x="40.9" y="6.6" width="13.3" height="8.9"/>
		</defs>
		<clipPath id="XMLID_27_">
			<use xlink:href="#XMLID_5_"  style="overflow:visible;"/>
		</clipPath>
		<g id="XMLID_6_" class="st4">
			<defs>
				<rect id="XMLID_7_" x="41" y="-73.8" width="68.9" height="89.2"/>
			</defs>
			<clipPath id="XMLID_28_">
				<use xlink:href="#XMLID_7_"  style="overflow:visible;"/>
			</clipPath>
			<g id="XMLID_8_" class="st5">
				<defs>
					<rect id="XMLID_9_" x="41" y="6.7" width="13.1" height="8.7"/>
				</defs>
				<clipPath id="XMLID_29_">
					<use xlink:href="#XMLID_9_"  style="overflow:visible;"/>
				</clipPath>
				<path id="XMLID_10_" class="st6" d="M53.4,15c0,0.2,0.2,0.4,0.4,0.4c0.2,0,0.4-0.1,0.4-0.4c0-0.2-0.2-0.4-0.4-0.4
					C53.6,14.6,53.4,14.8,53.4,15 M53.5,15c0-0.2,0.1-0.3,0.3-0.3c0.2,0,0.3,0.1,0.3,0.3c0,0.2-0.1,0.3-0.3,0.3
					C53.6,15.3,53.5,15.2,53.5,15z M53.6,15.2L53.6,15.2l0.1-0.2h0.1l0.1,0.2h0.1L53.8,15c0.1,0,0.1,0,0.1-0.1
					c0-0.1-0.1-0.1-0.2-0.1h-0.2V15.2z M53.7,14.9L53.7,14.9c0.1,0,0.2,0,0.2,0.1c0,0,0,0.1-0.1,0.1h-0.1V14.9z M47.1,13.9l-2.5-3.4
					v2.5h1v2.4H41v-2.4H42V9.1H41V6.7h3.6l2.5,3.4l2.5-3.4h3.6v2.4h-0.9v3.8h0.9v2.4h-4.6v-2.4h1v-2.5L47.1,13.9z"/>
			</g>
		</g>
	</g>
</g>
<g id="XMLID_16_">
	<path id="XMLID_25_" class="st7" d="M65.2,12.2V8.6h-1.1l0-0.5l0-0.5l0.2,0c0.9-0.1,1.1-0.3,1.4-1l0.1-0.1h1v9.3h-1.4L65.2,12.2z"
		/>
	<path id="XMLID_24_" class="st8" d="M63.8,15.5l0-0.2l0.1-0.1c0.5-0.4,0.7-1.1,0.6-2.1c0-1.1-0.4-2-0.7-2.2l-0.1,0l0-0.2
		c0,0,0-0.6,0-1.2l0-0.9h-0.3c-0.2,0-0.4,0-0.6,0l-0.2,0V8.1l0-0.5l0.1,0c0.5,0,0.9-0.2,1.1-0.5C63.9,7,64,7,64,7
		c0,0,0.2-0.3,0.2-0.5l0-0.1h1l0,0.4l0,0.4l-0.1,0c-0.2,0.2-0.5,0.3-0.9,0.3l-0.2,0l0,0.5l0,0.5h1.1v7.1h-1.4L63.8,15.5z"/>
	<path id="XMLID_21_" class="st9" d="M61.1,6.4c-0.2,0-0.3,0-0.3,0s0,0.1,0,0.2c0,0.2,0.2,1.1,0.2,1.3c0,0,0,0.1,0,0.2
		c0,0.1,0,0.2,0,0.3c0,0.1,0,0.2,0,0.3c0,0.1,0,0.2,0,0.3c0,0.1,0,0.3,0.1,0.4c0,0.1,0,0.3,0.1,0.3c0,0,0,0.1,0,0.2
		c0,0.1,0,0.2,0,0.3s0,0.2,0,0.3c0,0.1,0,0.2,0.1,0.4c0,0.1,0.1,0.3,0.1,0.4l0,0.2h0.4c0.8,0,1,0.1,1.1,0.8c0,0.1,0,1.2,0,1.4
		c-0.1,0.5-0.3,0.7-0.9,0.7H62l0,0c0,0,0.1,0.4,0.2,1h0l0.1,0.3l0.2,0c1.3,0,2-0.7,2.1-2c0-0.2,0-1.1,0-1.3
		c-0.1-0.8-0.4-1.4-0.9-1.7c-0.1-0.1-0.1-0.1-0.1-0.1c0.1,0,0.2-0.1,0.2-0.1l0,0l0-1v-1H63L63,9c0,0.6-0.1,0.8-0.3,1
		c-0.2,0.2-0.3,0.2-0.8,0.2l-0.4,0V7.7l0.4,0c0.5,0,0.5,0,0.6,0.1l0.1,0V7.5l0.1,0c0.5,0,0.9-0.2,1.2-0.5L64,7l0,0
		c-0.3-0.3-0.7-0.5-1.2-0.6C62.5,6.4,61.6,6.4,61.1,6.4L61.1,6.4z M60.1,10.5l0,3.9h0.5L60.1,10.5z"/>
	<path id="XMLID_18_" class="st10" d="M60.8,15.7c0,0,0-0.3-0.2-1.1c0-0.1,0-0.2,0-0.3c0-0.1,0-0.2,0-0.2c0,0-0.4,0-0.9,0h-0.9
		l0,0.1c0,0.1,0,0.1,0,0.2c0,0.1,0-0.7,0-3.9l0-4h1c1,0,1,0,1,0s0,0.1,0,0.2c0,0.2,0.2,1.1,0.2,1.3c0,0,0,0.1,0,0.2
		c0,0.1,0,0.2,0,0.3c0,0.1,0,0.2,0,0.3c0,0.1,0,0.2,0,0.3c0,0.1,0,0.3,0.1,0.4c0,0.1,0,0.3,0.1,0.3c0,0,0,0.1,0,0.2
		c0,0.1,0,0.2,0,0.3s0,0.2,0,0.3c0,0.1,0,0.2,0.1,0.4c0,0.1,0.1,0.3,0.1,0.4c0,0.3,0.5,3.1,0.5,3.1c0,0,0,0.2,0.1,0.4
		c0,0.2,0.1,0.5,0.1,0.6c0,0.1,0,0.3,0,0.3s-0.2,0-0.7,0L60.8,15.7L60.8,15.7z M60.4,12.7c0,0-0.1-0.7-0.2-1.3
		C60,10.5,60,10,59.8,9.1c-0.1-0.5-0.1-1-0.1-1c0-0.1,0,0,0,0.1c0,0.1-0.2,1.2-0.4,2.8c-0.1,0.4-0.1,1-0.2,1.3
		c0,0.3-0.1,0.5-0.1,0.5l0,0L60.4,12.7L60.4,12.7z"/>
	<path id="XMLID_17_" class="st9" d="M57.3,11V6.4h1.4l0,4l0,4l0.9,0l0.9,0l0,0c0,0.1,0.2,1.2,0.2,1.3l0,0h-3.5L57.3,11L57.3,11z"/>
</g>
</svg>
